<svg height="457.14286pt" viewBox="0 0 457.14286 457.14286" width="457.14286pt" xmlns="http://www.w3.org/2000/svg"><path d="m448 9.144531v309.757813h-261.304688l-129.09375 129.097656v-129.097656h-48.457031v-309.757813zm0 0" fill="#e7e4f3"/><g fill="#2a3d4f"><path d="m57.597656 457.144531c-1.179687 0-2.367187-.226562-3.5-.699219-3.417968-1.410156-5.640625-4.75-5.640625-8.445312v-119.957031h-39.3125c-5.054687 0-9.144531-4.085938-9.144531-9.140625v-309.757813c0-5.054687 4.089844-9.144531 9.144531-9.144531h438.855469c5.054688 0 9.144531 4.089844 9.144531 9.144531v309.757813c0 5.054687-4.089843 9.140625-9.144531 9.140625h-257.519531l-126.417969 126.421875c-1.75 1.75-4.089844 2.679687-6.464844 2.679687zm-39.3125-147.386719h39.3125c5.054688 0 9.144532 4.089844 9.144532 9.144532v107.027344l113.488281-113.492188c1.714843-1.714844 4.039062-2.679688 6.464843-2.679688h252.160157v-291.472656h-420.570313zm0 0"/><path d="m407.242188 81.355469h-357.339844c-5.054688 0-9.144532-4.085938-9.144532-9.140625 0-5.054688 4.089844-9.144532 9.144532-9.144532h357.339844c5.050781 0 9.140624 4.089844 9.140624 9.144532 0 5.054687-4.089843 9.140625-9.140624 9.140625zm0 0"/><path d="m407.242188 142.5625h-357.339844c-5.054688 0-9.144532-4.089844-9.144532-9.144531 0-5.050781 4.089844-9.140625 9.144532-9.140625h357.339844c5.050781 0 9.140624 4.089844 9.140624 9.140625 0 5.054687-4.089843 9.144531-9.140624 9.144531zm0 0"/><path d="m407.242188 203.769531h-357.339844c-5.054688 0-9.144532-4.089843-9.144532-9.144531s4.089844-9.144531 9.144532-9.144531h357.339844c5.050781 0 9.140624 4.089843 9.140624 9.144531s-4.089843 9.144531-9.140624 9.144531zm0 0"/><path d="m407.242188 264.972656h-357.339844c-5.054688 0-9.144532-4.089844-9.144532-9.140625 0-5.054687 4.089844-9.144531 9.144532-9.144531h357.339844c5.050781 0 9.140624 4.089844 9.140624 9.144531 0 5.050781-4.089843 9.140625-9.140624 9.140625zm0 0"/></g></svg>