<svg xmlns="http://www.w3.org/2000/svg" xmlns:xlink="http://www.w3.org/1999/xlink" id="Capa_1" x="0" y="0" version="1.1" viewBox="0 0 512 512" xml:space="preserve" style="enable-background:new 0 0 512 512"><circle style="fill:#00edff" cx="256" cy="256" r="256"/><path style="fill:#00c9ff" d="M512,256c0-4.119-0.107-8.212-0.299-12.283L376.358,108.374L215.69,69.595L109.455,177.928V400.24	l109.013,109.013C230.72,511.054,243.249,512,256,512C397.385,512,512,397.385,512,256z"/><path style="fill:#7c00ff" d="M401.013,383.413l-32.844-8.793l17.791-66.451c6.793-25.369,8.314-51.435,4.525-77.473l-3.518-24.163	c-4.765-32.735-20.678-62.626-44.809-84.165c-23.986-21.409-54.584-33.2-86.159-33.2s-62.173,11.791-86.159,33.2	c-24.131,21.539-40.044,51.43-44.809,84.165l-3.517,24.163c-3.79,26.038-2.269,52.104,4.524,77.473l17.791,66.451l-32.844,8.793	l-17.791-66.45c-7.993-29.857-9.785-60.529-5.326-91.164l3.517-24.163c5.913-40.626,25.734-77.785,55.813-104.634	c30.224-26.978,68.863-41.835,108.8-41.835s78.576,14.857,108.8,41.835c30.079,26.848,49.9,64.008,55.813,104.633l3.518,24.163	c4.458,30.635,2.666,61.306-5.327,91.163L401.013,383.413z"/><path style="fill:#5806c1" d="M424.131,225.8l-3.518-24.163c-5.913-40.626-25.734-77.785-55.813-104.633	C334.576,70.025,295.937,55.168,256,55.168c-0.334,0-0.667,0.01-1,0.012v34c0.333-0.003,0.666-0.012,1-0.012	c31.575,0,62.173,11.791,86.159,33.2c24.131,21.539,40.044,51.43,44.809,84.165l3.518,24.163	c3.789,26.038,2.268,52.104-4.525,77.473L368.17,374.62l32.844,8.793l17.791-66.45C426.797,287.106,428.589,256.434,424.131,225.8z"/><path style="fill:#ff432e" d="M191.078,408.32l-28.153,6.886c-31.332,7.663-62.719-12.476-70.105-44.983l-4.252-18.712	c-7.386-32.507,12.025-65.071,43.357-72.734l28.153-6.886c2.383-0.583,4.769,0.949,5.331,3.421l28.966,127.478	C194.937,405.261,193.461,407.737,191.078,408.32z"/><path style="fill:#7c00ff" d="M200.515,426.243l-3.252,0.795c-15.281,3.738-30.589-6.085-34.192-21.939l-26.664-117.347	c-3.602-15.854,5.865-31.736,21.146-35.474l3.252-0.795c15.281-3.738,30.589,6.085,34.192,21.939l26.664,117.347	C225.264,406.623,215.796,422.505,200.515,426.243z"/><path style="fill:#db0404" d="M320.922,408.32l28.153,6.886c31.332,7.663,62.719-12.476,70.105-44.983l4.252-18.712	c7.386-32.507-12.025-65.071-43.357-72.734l-28.153-6.886c-2.383-0.583-4.769,0.949-5.331,3.421L317.625,402.79	C317.063,405.261,318.539,407.737,320.922,408.32z"/><path style="fill:#5806c1" d="M311.485,426.243l3.252,0.795c15.281,3.738,30.589-6.085,34.192-21.939l26.664-117.347	c3.602-15.854-5.865-31.736-21.146-35.474l-3.252-0.795c-15.281-3.738-30.589,6.085-34.192,21.939l-26.664,117.347	C286.736,406.623,296.204,422.505,311.485,426.243z"/></svg>