<svg id="color_line" height="512" viewBox="0 0 74 74" width="512" xmlns="http://www.w3.org/2000/svg" data-name="color line"><path d="m6.834 49.533a2.618 2.618 0 0 0 .2 1.439c.986 2.023 5.141 2.035 6.538 3.766s.551 5.8 2.306 7.189c1.738 1.378 5.487-.4 7.521.564 1.99.946 2.979 4.981 5.186 5.469 2.146.48 4.736-2.749 7.019-2.762s4.919 3.187 7.05 2.683c2.21-.513 3.145-4.558 5.133-5.527 2.015-.986 5.783.749 7.514-.648s.83-5.459 2.217-7.214 5.532-1.805 6.5-3.839c.955-1.99-1.61-5.243-1.122-7.459a6.851 6.851 0 0 1 2-2.813" fill="#fcd462"/><path d="m6 33.808a6.8 6.8 0 0 0 2.013-2.813c.488-2.216-2.077-5.469-1.131-7.459.963-2.036 5.118-2.093 6.494-3.836s.486-5.808 2.225-7.214 5.491.338 7.514-.648c1.979-.968 2.923-5.014 5.124-5.527 2.14-.5 4.767 2.7 7.05 2.683s4.883-3.242 7.019-2.762c2.216.488 3.2 4.523 5.2 5.469 2.025.964 5.775-.814 7.521.564s.9 5.449 2.3 7.189 5.552 1.743 6.538 3.766a2.541 2.541 0 0 1 .2 1.439" fill="#fcd462"/><path d="m62.89 43.19a6.969 6.969 0 0 1 2.01-2.81l-3.747.59v.2h-.016v.006l.033-.005a6.841 6.841 0 0 0 -2.01 2.81c-.49 2.22 2.08 5.47 1.12 7.46-.96 2.03-5.11 2.09-6.49 3.84-1.3 1.64-.58 5.31-1.92 6.92 1.33.13 2.61.17 3.43-.49 1.74-1.41.83-5.46 2.22-7.22s5.53-1.8 6.5-3.84c.95-1.991-1.61-5.241-1.13-7.461z" fill="#f7be56"/><path d="m64.06 24.65-3.91.62c-1.65-.91-4.19-1.25-5.23-2.53-1.4-1.74-.54-5.81-2.3-7.19-1.74-1.38-5.49.4-7.52-.57-2-.94-2.98-4.98-5.19-5.47-2.14-.48-4.74 2.75-7.02 2.77s-4.91-3.19-7.05-2.69a2.412 2.412 0 0 0 -1.04.56c1.04-1.53 1.95-3.5 3.44-3.84 2.14-.51 4.77 2.69 7.05 2.68s4.88-3.24 7.02-2.76c2.22.49 3.2 4.52 5.2 5.47 2.02.96 5.77-.82 7.52.56s.9 5.45 2.29 7.19 5.56 1.74 6.54 3.77a2.439 2.439 0 0 1 .2 1.43z" fill="#f7be56"/><path d="m17.118 47.912a21.284 21.284 0 0 0 39.11-6.166" fill="#eeefee"/><path d="m35.45 58.892a21.879 21.879 0 0 1 -18.762-10.725.5.5 0 0 1 .861-.509 20.874 20.874 0 0 0 17.9 10.234h.115a20.951 20.951 0 0 0 20.176-16.255.5.5 0 0 1 .977.218 21.96 21.96 0 0 1 -21.146 17.037z" fill="#323c6b"/><path d="m14.669 32.442a21.284 21.284 0 0 1 39.11-6.166" fill="#eeefee"/><path d="m53.78 26.28-3.68.58a21.238 21.238 0 0 0 -33.76.84 21.282 21.282 0 0 1 37.44-1.42z" fill="#e1e6e9"/><rect fill="#fe7058" height="15.662" rx="1.702" transform="matrix(.988 -.156 .156 .988 -5.343 5.971)" width="66.371" x="2.266" y="29.263"/><path d="m67.77 39.93-1.5.24-1.74-11.01a1.713 1.713 0 0 0 -1.95-1.42l-60.69 9.57-.17-1.1a1.7 1.7 0 0 1 1.41-1.95l62.2-9.8a1.7 1.7 0 0 1 1.95 1.41l1.91 12.11a1.713 1.713 0 0 1 -1.42 1.95z" fill="#ea6453"/><g fill="#323c6b"><path d="m10.963 43.352 3.423-.54.186 1.188-4.7.74-1.217-7.74 4.51-.711.188 1.187-3.235.51.315 2 2.777-.438.187 1.187-2.777.438z"/><path d="m16.793 37.344q.631.737.891 1.058h.026q.2-.53.519-1.274l.742-1.753 1.467-.231-1.824 4.19 3.148 3.537-1.446.228-1.36-1.559q-.5-.573-.928-1.087h-.021q-.261.646-.55 1.32l-.813 1.9-1.444.227 1.9-4.334-3.023-3.425 1.467-.231z"/><path d="m24.77 35.535a2.419 2.419 0 0 0 -.93.342 2.094 2.094 0 0 0 -.666.675 2.633 2.633 0 0 0 -.35.977 3.923 3.923 0 0 0 .016 1.252 4.069 4.069 0 0 0 .351 1.176 2.394 2.394 0 0 0 .6.792 1.948 1.948 0 0 0 .819.408 2.633 2.633 0 0 0 1.014.021 4.869 4.869 0 0 0 .795-.2 4.264 4.264 0 0 0 .738-.324l.192 1.222a5.373 5.373 0 0 1 -.757.306 5.6 5.6 0 0 1 -.863.2 4.038 4.038 0 0 1 -1.6-.036 3.039 3.039 0 0 1 -1.246-.616 3.415 3.415 0 0 1 -.869-1.121 5.247 5.247 0 0 1 -.476-1.541 5.44 5.44 0 0 1 -.017-1.682 3.958 3.958 0 0 1 .49-1.424 3.215 3.215 0 0 1 1-1.053 3.731 3.731 0 0 1 1.5-.568 5.1 5.1 0 0 1 .849-.065 3.708 3.708 0 0 1 .741.076l.19 1.2a4.681 4.681 0 0 0 -.808-.08 4.446 4.446 0 0 0 -.713.063z"/><path d="m28.719 33.834 1.033 6.557 3.256-.513.188 1.187-4.531.714-1.22-7.743z"/><path d="m37.3 40.566a3.792 3.792 0 0 1 -1 .037 2.632 2.632 0 0 1 -.823-.22 2.266 2.266 0 0 1 -.653-.455 2.8 2.8 0 0 1 -.488-.667 3.478 3.478 0 0 1 -.277-.692 7.141 7.141 0 0 1 -.187-.872l-.719-4.56 1.274-.2.7 4.433a3.785 3.785 0 0 0 .379 1.256 1.444 1.444 0 0 0 .7.653 1.885 1.885 0 0 0 1.775-.279 1.443 1.443 0 0 0 .46-.834 3.769 3.769 0 0 0 -.025-1.312l-.7-4.433 1.275-.2.719 4.561a7.333 7.333 0 0 1 .089.887 3.479 3.479 0 0 1 -.051.744 2.778 2.778 0 0 1 -.263.786 2.249 2.249 0 0 1 -.492.635 2.737 2.737 0 0 1 -.729.464 3.851 3.851 0 0 1 -.964.268z"/><path d="m44.923 36.938a.817.817 0 0 0 -.205-.457.991.991 0 0 0 -.4-.242 2.438 2.438 0 0 0 -.532-.109q-.29-.028-.607-.049a7.033 7.033 0 0 1 -.812-.112 2.137 2.137 0 0 1 -.71-.274 1.732 1.732 0 0 1 -.544-.54 2.3 2.3 0 0 1 -.312-.9 2.766 2.766 0 0 1 .024-1.1 2.129 2.129 0 0 1 .4-.835 2.188 2.188 0 0 1 .705-.567 3.206 3.206 0 0 1 .979-.306 5.327 5.327 0 0 1 1.137-.055 4.634 4.634 0 0 1 1.018.16l.191 1.216a5.54 5.54 0 0 0 -1.093-.181 4.5 4.5 0 0 0 -.95.04 1.613 1.613 0 0 0 -.93.408.906.906 0 0 0 -.221.817.957.957 0 0 0 .189.469.934.934 0 0 0 .353.268 1.762 1.762 0 0 0 .475.13c.174.024.358.042.552.055q.458.035.884.107a2.433 2.433 0 0 1 .774.267 1.717 1.717 0 0 1 .595.556 2.4 2.4 0 0 1 .339.97 2.612 2.612 0 0 1 -.037 1.115 2 2 0 0 1 -.472.848 2.582 2.582 0 0 1 -.858.589 4.693 4.693 0 0 1 -1.174.333 5.058 5.058 0 0 1 -1.136.051 2.991 2.991 0 0 1 -.968-.206l-.188-1.2a4.842 4.842 0 0 0 1.061.2 4.489 4.489 0 0 0 1.026-.045 3.272 3.272 0 0 0 .585-.149 1.678 1.678 0 0 0 .493-.271 1.063 1.063 0 0 0 .315-.42 1.076 1.076 0 0 0 .054-.581z"/><path d="m48 38.731-1.22-7.743 1.274-.2 1.22 7.743z"/><path d="m53.22 35.969c.063-.441.107-.755.137-.943s.091-.575.188-1.16l.684-4.051 1.348-.212-1.5 8.172-1.145.181-3.943-7.316 1.357-.214 1.9 3.645q.407.79.535 1.046t.42.855z"/><path d="m58.819 35.81 3.423-.539.187 1.187-4.7.74-1.22-7.743 4.51-.711.187 1.186-3.235.51.315 2 2.78-.44.187 1.187-2.777.438z"/><path d="m6 34.308a.5.5 0 0 1 -.357-.85 6.476 6.476 0 0 0 1.882-2.57 6.9 6.9 0 0 0 -.63-3.278c-.52-1.5-1.057-3.042-.464-4.289.605-1.278 2.165-1.845 3.674-2.392a6.779 6.779 0 0 0 2.88-1.542 6.828 6.828 0 0 0 .842-3.183c.183-1.587.371-3.229 1.462-4.11s2.721-.714 4.307-.559a6.848 6.848 0 0 0 3.3-.15 6.759 6.759 0 0 0 2.1-2.468c.858-1.363 1.746-2.773 3.134-3.1 1.33-.316 2.728.536 4.074 1.357a6.817 6.817 0 0 0 3.084 1.316 6.908 6.908 0 0 0 3.077-1.349c1.337-.836 2.725-1.7 4.055-1.4 1.394.307 2.3 1.706 3.17 3.059a6.732 6.732 0 0 0 2.129 2.445 6.854 6.854 0 0 0 3.3.114c1.583-.175 3.221-.355 4.316.509s1.31 2.514 1.509 4.1a6.838 6.838 0 0 0 .869 3.167 6.777 6.777 0 0 0 2.9 1.509c1.515.531 3.08 1.079 3.7 2.352a3.008 3.008 0 0 1 .249 1.713.5.5 0 1 1 -.994-.11 2.046 2.046 0 0 0 -.152-1.162c-.441-.906-1.81-1.385-3.134-1.849a7.349 7.349 0 0 1 -3.345-1.826 7.415 7.415 0 0 1 -1.083-3.668c-.174-1.389-.354-2.825-1.136-3.442s-2.2-.453-3.588-.3a7.441 7.441 0 0 1 -3.839-.2 7.312 7.312 0 0 1 -2.54-2.807c-.765-1.186-1.551-2.41-2.551-2.629-.938-.212-2.143.543-3.308 1.272a7.508 7.508 0 0 1 -3.6 1.5h-.017a7.534 7.534 0 0 1 -3.6-1.459c-1.174-.717-2.387-1.453-3.325-1.237-.988.23-1.765 1.463-2.515 2.656a7.33 7.33 0 0 1 -2.5 2.833 7.444 7.444 0 0 1 -3.841.248c-1.382-.137-2.812-.278-3.579.341s-.938 2.059-1.1 3.447a7.411 7.411 0 0 1 -1.05 3.688 7.366 7.366 0 0 1 -3.324 1.862c-1.318.479-2.682.973-3.111 1.881-.417.876.052 2.226.506 3.532a7.5 7.5 0 0 1 .664 3.82 7.164 7.164 0 0 1 -2.144 3.056.5.5 0 0 1 -.356.152z"/><path d="m29.037 68.509a2.554 2.554 0 0 1 -.56-.061c-1.39-.307-2.293-1.707-3.167-3.061a6.747 6.747 0 0 0 -2.124-2.444 6.882 6.882 0 0 0 -3.309-.113c-1.581.175-3.219.355-4.309-.51s-1.308-2.508-1.509-4.094a6.812 6.812 0 0 0 -.876-3.172 6.771 6.771 0 0 0 -2.9-1.51c-1.515-.531-3.08-1.079-3.7-2.352a3.064 3.064 0 0 1 -.25-1.705.509.509 0 0 1 .545-.451.5.5 0 0 1 .451.544 2.122 2.122 0 0 0 .151 1.17c.441.906 1.81 1.385 3.134 1.849a7.349 7.349 0 0 1 3.345 1.826 7.4 7.4 0 0 1 1.094 3.675c.176 1.386.356 2.819 1.137 3.435s2.2.453 3.579.3a7.468 7.468 0 0 1 3.847.2 7.329 7.329 0 0 1 2.535 2.806c.765 1.184 1.555 2.408 2.544 2.627.943.209 2.147-.544 3.313-1.273a7.487 7.487 0 0 1 3.6-1.5 7.3 7.3 0 0 1 3.619 1.461c1.174.715 2.393 1.458 3.318 1.235.994-.23 1.771-1.463 2.521-2.655a7.31 7.31 0 0 1 2.51-2.835 7.429 7.429 0 0 1 3.835-.247c1.386.137 2.818.278 3.584-.341s.936-2.058 1.093-3.445a7.387 7.387 0 0 1 1.046-3.69 7.351 7.351 0 0 1 3.324-1.862c1.318-.479 2.682-.974 3.111-1.881.422-.879-.047-2.23-.5-3.538a7.5 7.5 0 0 1 -.658-3.815 7.272 7.272 0 0 1 2.135-3.056.5.5 0 0 1 .715.7 6.662 6.662 0 0 0 -1.879 2.574 6.908 6.908 0 0 0 .628 3.269c.52 1.5 1.057 3.048.458 4.3-.605 1.277-2.165 1.843-3.674 2.391a6.779 6.779 0 0 0 -2.88 1.542 6.806 6.806 0 0 0 -.838 3.184c-.18 1.587-.366 3.228-1.457 4.11s-2.725.715-4.312.558a6.828 6.828 0 0 0 -3.3.15 6.726 6.726 0 0 0 -2.1 2.469c-.858 1.363-1.746 2.772-3.139 3.1-1.333.314-2.722-.534-4.067-1.355a6.957 6.957 0 0 0 -3.081-1.318h-.011a6.893 6.893 0 0 0 -3.072 1.348 7.271 7.271 0 0 1 -3.5 1.461z"/><path d="m5.3 50.252a2.206 2.206 0 0 1 -2.17-1.859l-1.908-12.109a2.205 2.205 0 0 1 1.833-2.518l62.2-9.8a2.2 2.2 0 0 1 2.516 1.834l1.91 12.1a2.207 2.207 0 0 1 -1.833 2.518l-62.2 9.8a2.244 2.244 0 0 1 -.348.034zm-2.094-15.5a1.2 1.2 0 0 0 -1 1.374l1.912 12.111a1.2 1.2 0 0 0 1.375 1l62.2-9.8a1.2 1.2 0 0 0 1-1.375l-1.91-12.111a1.2 1.2 0 0 0 -1.374-1z"/><path d="m35.45 58.892a21.879 21.879 0 0 1 -18.762-10.725.5.5 0 0 1 .861-.509 20.874 20.874 0 0 0 17.9 10.234h.115a20.951 20.951 0 0 0 20.176-16.255.5.5 0 0 1 .977.218 21.96 21.96 0 0 1 -21.146 17.037z"/><path d="m14.669 32.942a.5.5 0 0 1 -.488-.609 21.96 21.96 0 0 1 21.145-17.033h.121a21.879 21.879 0 0 1 18.763 10.721.5.5 0 0 1 -.861.509 20.874 20.874 0 0 0 -17.902-10.23h-.115a20.951 20.951 0 0 0 -20.175 16.251.5.5 0 0 1 -.488.391z"/></g><path d="m18.208 19.145a.5.5 0 0 1 -.362-.845q.428-.448.874-.88a.5.5 0 0 1 .7.72q-.432.417-.845.851a.5.5 0 0 1 -.367.154z" fill="#fff"/><path d="m12.083 28.854a.5.5 0 0 1 -.468-.677 29.392 29.392 0 0 1 4.172-7.464.5.5 0 1 1 .793.608 28.428 28.428 0 0 0 -4.029 7.21.5.5 0 0 1 -.468.323z" fill="#fff"/><path d="m48.75 9.421a.5.5 0 0 1 -.354-.146 11.523 11.523 0 0 1 -1.126-1.56c-.87-1.352-1.958-3.034-3.741-3.715a.5.5 0 1 1 .357-.934c2.088.8 3.272 2.634 4.224 4.109a12.112 12.112 0 0 0 .993 1.4.5.5 0 0 1 -.354.854z" fill="#323c6b"/><path d="m50.957 9.352a.5.5 0 0 1 -.053-1c.489-.052 1-.1 1.532-.123a.5.5 0 1 1 .043 1c-.507.022-1 .068-1.468.118z" fill="#323c6b"/><path d="m50.97 65.632a.409.409 0 0 1 -.049 0c-.221-.021-.479-.044-.739-.064a.5.5 0 1 1 .074-1c.269.02.532.044.761.066a.5.5 0 0 1 -.047 1z" fill="#323c6b"/><path d="m42.165 71.44a8.271 8.271 0 0 1 -4.08-1.307.5.5 0 0 1 .5-.868 6.36 6.36 0 0 0 4.64 1.052c2-.464 3.146-2.041 4.149-3.617a.5.5 0 0 1 .844.537c-1.065 1.673-2.4 3.5-4.766 4.053a5.6 5.6 0 0 1 -1.287.15z" fill="#323c6b"/></svg>